<svg xmlns="http://www.w3.org/2000/svg" viewBox="0 0 1024 1024"><g id="레이어_1" data-name="레이어 1"><path d="M466.58,497.6c.24-5.29.59-9.48.59-13.68q.06-102.1.1-204.22a140.4,140.4,0,0,1,1.67-21.77c2.51-15.81,15.22-26.09,32.18-26.67s28,7.21,31.63,24a146.63,146.63,0,0,1,3.12,30.59c.26,66.74.14,133.49.14,200.24v12.54c17.12-5.51,32.46-10.44,47.78-15.39,57.67-18.63,115.28-37.4,173-55.83,19.55-6.24,35.75,1.48,43.14,19.59,6.28,15.39-1.37,34.15-19.55,41.43-24.56,9.82-49.91,17.7-75.06,26C658.47,529.87,611.51,545,564.6,560.3c-2.18.71-4.27,1.72-7.64,3.09,2.31,3.57,4.19,6.83,6.39,9.85q60.1,82.41,120.18,164.86a119.64,119.64,0,0,1,13.21,23.2c6.07,14.3,2.13,27.14-9.8,36.12-13.58,10.23-26.91,11.31-38.74-.15-11.56-11.19-21.34-24.38-30.91-37.43-35.92-48.94-71.42-98.18-107.11-147.28-2.49-3.42-5.31-6.59-8.63-10.68-21.81,29-43.25,57.15-64.26,85.6-23.05,31.21-45.63,62.78-68.61,94a91.64,91.64,0,0,1-13.37,14.66c-13.14,11.5-25.65,11.86-39.66,1.81-12.89-9.24-17.48-22.76-10-37.47,6.7-13.18,15.52-25.39,24.23-37.42C366.44,672.6,403.34,622.33,440.1,572c1.74-2.39,3.31-4.9,5.89-8.73-12.76-4.33-24.75-8.49-36.79-12.48-60.36-20-120.79-39.74-181.09-59.89-19.49-6.51-28.3-18.76-27-35.58C202.73,434,223,420.34,244.31,427c38.55,12,76.94,24.6,115.37,37q49.17,15.84,98.3,31.77C460.37,496.52,462.9,496.82,466.58,497.6Z"/></g></svg>